<svg xmlns="http://www.w3.org/2000/svg" xmlns:xlink="http://www.w3.org/1999/xlink" width="200" height="162.55" viewBox="0 0 200 162.55"><defs><clipPath id="a"><rect width="200" height="162.55" fill="#fff"/></clipPath></defs><g clip-path="url(#a)"><path d="M135.014,100.275c.729,4.12-1.139,7.1-3.514,10.032q-19.459,24-38.789,48.1c-3.274,4.066-6.821,5.089-11.689,3.307q-31.871-11.663-63.745-23.321a9.769,9.769,0,0,1-6.724-7.84Q5.478,104.934.259,79.348a10.22,10.22,0,0,1,2.192-9.024Q23.132,44.747,43.737,19.109c2.627-3.261,4.69-3.835,8.606-2.4q20.474,7.508,40.941,15.033a1.813,1.813,0,0,0,2.532-.7c6.773-9.072,13.67-18.051,20.418-27.142A8.707,8.707,0,0,1,124.821.068q19.411,2.011,38.844,3.8a8.989,8.989,0,0,1,7.041,4.276q13.864,20.584,27.858,41.081c1.977,2.912,1.922,4.7-.223,7.539q-15.98,21.154-31.952,42.314a7.994,7.994,0,0,1-7.706,3.454c-7.44-.753-14.885-1.464-22.328-2.189-.353-.034-.709-.039-1.342-.071M62.955,80.219a6.74,6.74,0,0,0-5.59,2.693Q38.394,106.5,19.391,130.066c-1.545,1.918-1.276,2.8,1.11,3.678q31.187,11.5,62.376,22.987c2.658.979,3.851.645,5.621-1.556q19.248-23.958,38.491-47.92c1.708-2.128,1.4-3.287-1.136-4.215Q95.581,91.942,65.3,80.862a23.459,23.459,0,0,0-2.35-.643m66.381,18.974c-.026-.2-.046-.454-.1-.7q-4.958-24.7-9.919-49.4a4.152,4.152,0,0,0-2.9-3.265q-31.3-11.441-62.6-22.881a2.675,2.675,0,0,0-2.234.157,2.66,2.66,0,0,0-.512,2.178C54.127,40.7,57.272,56.1,60.312,71.52A7.87,7.87,0,0,0,65.791,77.9q23.381,8.493,46.726,17.09c4.9,1.795,9.8,3.6,14.709,5.377,1.5.542,2.115.183,2.109-1.17M57.661,73.949c-.036-.292-.077-.96-.207-1.609q-3.791-18.98-7.6-37.957c-.6-3.012-1.184-6.03-1.831-9.032-.1-.441-.438-1.05-.79-1.151-.336-.1-.851.341-1.251.6a2.539,2.539,0,0,0-.492.585Q26.057,49.5,6.605,73.6A5.17,5.17,0,0,0,5.46,78.3c.638,2.9,1.2,5.817,1.78,8.729q4.046,20.182,8.107,40.361a5.714,5.714,0,0,0,.734,1.4,5.267,5.267,0,0,0,1.179-.832q19.115-23.68,38.194-47.389a10,10,0,0,0,2.207-6.623m76.262,20.906c8.632.837,17.088,1.652,25.541,2.485a2.841,2.841,0,0,0,2.721-1.35Q177.257,76,192.357,56.03c1.046-1.384.862-1.814-.862-1.993-2.953-.306-5.91-.567-8.865-.857q-13.221-1.3-26.44-2.608a5.242,5.242,0,0,0-5.134,2.059q-9.8,13-19.607,26a2.045,2.045,0,0,0-.5,1.352c.942,4.92,1.954,9.828,2.975,14.876M125.065,5.383c.263.518.35.75.485.951Q138.356,25.2,151.171,44.065a7.115,7.115,0,0,0,5.547,3.12c7.9.751,15.791,1.556,23.685,2.336,3.413.337,6.825.689,10.243.969A2.038,2.038,0,0,0,192.135,50c.184-.2-.152-.913-.3-1.379a2.871,2.871,0,0,0-.412-.644Q178.912,29.557,166.43,11.118a4.447,4.447,0,0,0-3.652-2.082c-8-.726-16-1.552-23.994-2.335-4.476-.438-8.953-.861-13.718-1.318m4.83,69.433c.331-.363.477-.5.6-.657q8.754-11.575,17.5-23.159c1.427-1.9,1.4-3.438,0-5.5Q135.18,26.627,122.36,7.768c-1.047-1.541-1.167-1.537-2.355.025q-9.112,11.979-18.217,23.963c-.578.761-1.133,1.54-1.749,2.378.507.2.881.358,1.262.5q8.568,3.153,17.138,6.3a8.945,8.945,0,0,1,6.026,6.975c.817,3.958,1.6,7.923,2.4,11.885.99,4.909,1.979,9.818,3.028,15.024" transform="translate(0.001 0)" fill="#fff"/><path d="M321.545,352.591c-2.754,0-4.921-.488-6.754-1.982a5.156,5.156,0,0,1-1.2-7.01c2.883-4.817,11.38-6.42,15.825-2.985,2.772,2.142,3.014,5.605.505,8.325a11.555,11.555,0,0,1-8.374,3.652" transform="translate(-216.574 -234.62)" fill="#fff"/><path d="M193.615,305.677c-2.979-.008-5.087-.518-6.881-1.962a5.156,5.156,0,0,1-1.291-6.874c2.841-5.026,11.706-6.646,16.133-2.947a5.236,5.236,0,0,1,.672,7.653,11.13,11.13,0,0,1-8.634,4.13" transform="translate(-127.889 -202.139)" fill="#fff"/><path d="M113.22,405.615c-2.965.013-5.08-.464-6.893-1.885a5.211,5.211,0,0,1-1.3-7.117c2.9-4.811,11.385-6.392,15.826-2.948a5.273,5.273,0,0,1,.77,7.971,11.178,11.178,0,0,1-8.405,3.979" transform="translate(-72.138 -271.351)" fill="#fff"/><path d="M240.3,452.953a33.81,33.81,0,0,1-5.609-2.155c-2.69-1.6-3.194-4.706-1.546-7.366,2.937-4.739,11.312-6.279,15.726-2.891a5.3,5.3,0,0,1,.743,8.087c-2.389,2.8-5.584,3.82-9.145,3.926l-.169.4" transform="translate(-160.807 -303.832)" fill="#fff"/><path d="M206.091,114.071c-4.759-.1-11.1-5.2-12.251-9.864-.656-2.652.753-4.444,3.5-4.451,4.818-.013,11.4,5.28,12.453,10.007.579,2.613-.925,4.364-3.7,4.308" transform="translate(-134.133 -69.086)" fill="#fff"/><path d="M355.037,265c-4.751-.157-10.973-5.138-12.182-9.753-.731-2.788.776-4.663,3.664-4.56,4.768.17,11.007,5.162,12.188,9.752.72,2.8-.773,4.657-3.67,4.561" transform="translate(-237.317 -173.609)" fill="#fff"/><path d="M280.617,189.551c-4.761-.059-11.2-5.174-12.3-9.771-.647-2.7.707-4.46,3.457-4.484,4.758-.041,11.382,5.161,12.455,9.78.648,2.788-.742,4.51-3.611,4.474" transform="translate(-185.711 -121.401)" fill="#fff"/><path d="M113.327,130.584A18.251,18.251,0,0,1,118,119.3c1.006-1.09,2.2-2.216,3.865-1.588,1.65.621,1.894,2.246,1.911,3.727a17.831,17.831,0,0,1-4.706,12.477,3.072,3.072,0,0,1-.338.313c-1,.824-2.033,1.7-3.44,1.165-1.39-.527-1.653-1.847-1.866-3.128-.075-.452-.056-.919-.1-1.677" transform="translate(-78.485 -81.393)" fill="#fff"/><path d="M94.37,224.137a18.042,18.042,0,0,1-4.484,11.326c-1.03,1.156-2.267,2.312-3.981,1.709-1.664-.585-1.884-2.232-1.909-3.716a17.506,17.506,0,0,1,4.7-12.463c.969-1.064,2.191-2.095,3.76-1.5,1.625.615,1.8,2.21,1.913,3.724.023.305,0,.614,0,.921" transform="translate(-58.17 -151.888)" fill="#fff"/><path d="M43.43,224.2a18.772,18.772,0,0,1-4.171,10.9,8.386,8.386,0,0,1-1.439,1.376c-2.173,1.651-4.151.966-4.619-1.7a13.728,13.728,0,0,1-.043-3.958,17.837,17.837,0,0,1,3.4-8.453,6,6,0,0,1,1.784-1.869c.973-.511,2.33-1.162,3.158-.834s1.306,1.749,1.789,2.761a5.343,5.343,0,0,1,.146,1.775" transform="translate(-22.878 -152.065)" fill="#fff"/><path d="M64.916,325.836a19.192,19.192,0,0,1-4.451,11.374,2.64,2.64,0,0,1-.207.227c-1.1,1.022-2.263,2.2-3.889,1.6-1.7-.627-1.9-2.31-1.923-3.867A17.658,17.658,0,0,1,58.724,323.3c1.055-1.265,2.361-2.606,4.175-1.934,1.979.732,1.812,2.749,2.016,4.468" transform="translate(-37.705 -222.439)" fill="#fff"/><path d="M145.512,224.443a18.753,18.753,0,0,1-4.541,11.524c-1.027,1.15-2.247,2.349-3.96,1.761-1.737-.6-1.944-2.31-1.954-3.846a17.586,17.586,0,0,1,4.879-12.546,5.437,5.437,0,0,1,1.081-.855c1.859-1.166,3.419-.65,4.075,1.432a15.574,15.574,0,0,1,.421,2.53" transform="translate(-93.533 -152.27)" fill="#fff"/><path d="M451.99,252.288c2.606-.014,3.83,1.728,2.637,4.08a11.161,11.161,0,0,1-9.205,6.322c-2.485.264-3.708-1.556-2.827-3.879,1.234-3.253,5.915-6.5,9.394-6.522" transform="translate(-306.322 -174.722)" fill="#fff"/><path d="M547.868,208.955c-2.536.013-3.656-1.582-2.76-3.929,1.214-3.18,5.958-6.471,9.382-6.509,2.508-.028,3.654,1.608,2.762,3.943-1.222,3.2-5.961,6.477-9.383,6.5" transform="translate(-377.302 -137.482)" fill="#fff"/><path d="M500.181,73.084c3.408.129,8.508,4.043,9.532,7.316.578,1.847-.386,3.174-2.3,2.837a12.3,12.3,0,0,1-9.366-7.107c-.9-1.88.081-3.123,2.135-3.046" transform="translate(-344.689 -50.612)" fill="#fff"/><path d="M371.48,62c.349-2.6,1.007-4.863,2.865-6.623a4.08,4.08,0,0,1,6.574.735,9.286,9.286,0,0,1-1.208,11.05c-2.2,2.086-5.1,1.831-6.63-.782a25.116,25.116,0,0,1-1.6-4.38" transform="translate(-257.268 -37.422)" fill="#fff"/><path d="M437.87,140.627c-.143,3.341-.762,5.622-2.618,7.389a4.085,4.085,0,0,1-6.576-.7c-2.214-3.191-1.525-8.712,1.405-11.261,2.056-1.789,4.765-1.592,6.229.715a18.662,18.662,0,0,1,1.559,3.861" transform="translate(-295.975 -93.392)" fill="#fff"/></g></svg>